<?xml version="1.0" standalone="no"?>
<!DOCTYPE svg PUBLIC "-//W3C//DTD SVG 20010904//EN"
 "http://www.w3.org/TR/2001/REC-SVG-20010904/DTD/svg10.dtd">
<svg version="1.0" xmlns="http://www.w3.org/2000/svg"
 width="500.000000pt" height="500.000000pt" viewBox="0 0 500.000000 500.000000"
 preserveAspectRatio="xMidYMid meet">
<metadata>
Created by potrace 1.14, written by Peter Selinger 2001-2017
</metadata>
<g transform="translate(0.000000,500.000000) scale(0.100000,-0.100000)"
fill="#000000" stroke="none">
<path d="M1182 4169 c-9 -4 -40 -53 -69 -110 -53 -107 -144 -258 -188 -313
-14 -17 -51 -62 -81 -101 -59 -73 -235 -250 -257 -258 -8 -2 -12 -28 -12 -79
0 -69 3 -81 30 -119 51 -72 129 -100 215 -76 31 8 37 6 57 -18 13 -14 23 -35
23 -46 0 -10 6 -19 13 -19 6 0 20 -11 30 -25 16 -23 16 -24 -2 -20 -10 2 -34
11 -52 20 -32 17 -139 56 -139 51 0 -1 -23 -67 -51 -147 -28 -79 -52 -151 -54
-159 -2 -8 -27 -82 -55 -165 -28 -82 -58 -172 -66 -200 -9 -27 -20 -59 -24
-70 -8 -18 -120 -352 -120 -358 0 -1 48 -3 108 -3 59 -1 150 -5 202 -9 52 -4
101 -7 108 -8 20 -1 14 -32 -10 -54 -13 -11 -36 -25 -53 -31 l-30 -10 33 -7
c33 -8 74 -49 78 -81 4 -29 11 -25 23 15 9 32 19 43 51 57 l39 18 -37 16 c-21
9 -43 29 -49 43 -12 26 -12 27 21 27 19 0 49 -11 70 -25 58 -40 104 -55 163
-55 86 0 135 17 192 67 58 51 67 50 126 -5 16 -14 36 -27 44 -28 9 -1 31 -7
49 -12 38 -12 35 -12 67 -12 18 0 23 -4 19 -15 -4 -8 -1 -15 5 -15 6 0 14 0
19 0 4 0 7 8 7 16 0 9 10 20 23 25 12 5 22 6 22 3 0 -9 104 67 113 83 6 10 18
4 48 -28 21 -22 39 -45 39 -51 0 -7 15 -9 38 -5 20 3 31 3 25 0 -18 -7 -16
-52 2 -59 19 -8 48 15 41 32 -2 6 4 14 14 17 21 5 35 -3 36 -20 2 -30 5 -33
28 -33 13 0 26 -5 28 -11 2 -6 14 -2 28 11 22 19 23 20 3 11 -30 -15 -35 -14
-25 7 5 9 7 22 5 28 -2 7 5 10 21 7 14 -3 25 -8 24 -12 -3 -26 3 -28 42 -19
39 10 40 11 23 30 -11 13 -25 17 -40 13 -29 -7 -30 1 -2 16 17 9 23 7 36 -10
8 -12 23 -21 34 -21 10 0 19 -4 19 -10 0 -5 12 -13 28 -16 27 -7 81 -40 93
-57 3 -5 9 -2 12 7 4 9 11 16 17 16 15 0 12 -27 -3 -33 -11 -4 -12 -14 -3 -51
6 -25 14 -46 17 -46 8 0 24 59 21 73 -1 4 1 6 5 5 5 -2 23 11 41 28 36 35 81
47 107 28 9 -7 25 -11 36 -9 20 4 27 -21 8 -27 -7 -2 -13 -17 -15 -33 -2 -15
-16 -54 -32 -86 l-29 -57 24 9 c13 5 42 9 64 9 24 0 38 4 34 10 -3 6 1 10 10
10 9 0 14 -4 11 -9 -8 -13 29 -42 46 -36 11 4 15 -2 15 -25 0 -16 -4 -30 -8
-30 -4 0 -5 -8 -2 -19 2 -10 -1 -38 -8 -62 -30 -102 -3 -122 43 -31 24 49 25
53 8 62 -9 5 -20 19 -23 30 -4 16 0 20 19 20 14 0 27 7 31 15 4 11 14 14 34
11 16 -2 32 0 35 6 16 26 90 47 157 44 l69 -2 45 50 c24 27 51 62 58 77 8 14
23 29 35 32 21 5 27 31 10 42 -5 3 -7 12 -4 20 5 12 8 12 21 -1 21 -20 37 -13
41 19 2 15 6 27 10 28 33 3 49 11 61 28 17 26 37 27 50 2 6 -10 24 -21 41 -25
25 -5 30 -10 25 -25 -7 -23 5 -33 25 -20 12 7 13 11 2 18 -9 5 4 10 38 14 72
9 121 28 146 56 21 24 22 24 28 5 11 -34 65 -58 131 -58 72 0 112 19 170 80
38 39 115 176 115 203 0 6 4 11 8 11 15 0 35 76 27 101 -9 31 -34 59 -52 59
-8 0 -21 -17 -29 -37 -78 -192 -170 -291 -271 -294 -53 -2 -87 14 -114 53 -12
18 -24 35 -26 37 -2 3 -17 -9 -33 -26 -17 -17 -46 -38 -66 -48 -71 -33 -172
-13 -196 40 l-11 24 -35 -30 c-40 -35 -72 -49 -113 -49 -27 0 -33 -6 -69 -84
-49 -105 -123 -188 -187 -212 -28 -11 -71 -18 -108 -17 -143 3 -221 79 -226
223 -2 39 18 118 33 138 15 18 3 15 -34 -8 -93 -57 -246 -54 -311 5 -13 13
-34 39 -46 59 -13 20 -25 36 -27 36 -3 0 -16 -11 -29 -24 -32 -32 -102 -79
-140 -94 -126 -50 -273 -13 -321 81 l-15 28 -43 -44 c-57 -60 -115 -88 -180
-88 -64 0 -152 36 -203 85 l-37 34 -43 -48 c-69 -76 -177 -107 -269 -76 -63
21 -87 42 -119 101 -16 31 -25 41 -26 29 -3 -45 4 -82 22 -118 23 -48 23 -49
2 -42 -10 3 -49 8 -87 11 -37 3 -71 7 -75 9 -3 2 -31 7 -61 11 -30 4 -64 8
-75 10 -11 1 -33 3 -50 4 -56 3 -57 8 -19 126 67 211 277 844 283 854 5 7 34
1 85 -19 42 -17 84 -30 93 -30 9 0 33 -18 54 -41 l37 -40 37 35 c20 20 43 36
50 36 7 0 15 6 18 14 4 9 14 12 25 9 22 -5 22 -2 4 111 -10 61 -5 70 30 61 27
-7 54 -60 64 -125 4 -24 12 -40 20 -40 25 0 -5 121 -41 170 -21 28 -23 37 -12
45 15 11 40 53 43 73 4 23 14 27 14 5 0 -31 56 -101 97 -121 21 -10 54 -17 73
-16 19 1 46 2 59 3 33 1 107 80 116 123 l8 33 13 -36 c32 -93 98 -129 221
-120 32 2 86 53 108 101 12 27 21 37 26 28 4 -6 5 -16 3 -20 -3 -4 0 -8 5 -8
6 0 11 -6 11 -13 0 -20 61 -73 96 -85 41 -13 105 -8 145 12 30 15 33 15 45 -2
12 -15 13 -16 14 0 0 9 -5 18 -12 20 -8 3 -5 14 9 34 12 17 25 43 29 58 6 26
7 25 30 -24 13 -27 27 -50 32 -50 5 0 7 -12 4 -26 -4 -23 -3 -25 14 -16 14 7
28 6 50 -3 35 -14 121 -10 142 7 10 9 15 9 22 -1 5 -9 10 -10 14 -2 4 6 5 14
3 19 -3 4 6 21 20 37 14 17 22 24 19 18 -4 -7 -2 -13 4 -13 7 0 9 8 5 19 -3
10 -1 29 4 42 7 18 10 19 10 6 2 -42 54 -104 107 -127 97 -42 205 5 235 103
l12 37 19 -42 c21 -48 69 -95 104 -104 23 -6 68 -8 113 -5 32 1 107 80 116
120 l7 32 25 -51 c42 -85 145 -129 223 -97 41 18 90 69 102 108 l11 37 24 -48
c22 -45 45 -67 100 -95 14 -7 19 -16 13 -24 -5 -10 -13 -10 -27 -3 -20 11 -43
0 -43 -21 0 -5 -8 -21 -19 -35 -29 -43 -141 -268 -141 -286 0 -37 29 -11 66
60 21 42 47 79 57 82 12 3 16 10 12 23 -6 19 1 37 42 102 20 31 26 35 41 26
15 -9 18 -24 17 -87 -2 -80 1 -76 -70 -127 -16 -11 -68 -50 -117 -87 -76 -58
-86 -68 -63 -68 34 0 53 11 154 87 46 34 87 63 90 63 3 0 6 -34 5 -75 -1 -53
3 -76 13 -79 28 -11 40 4 38 47 -1 31 5 51 24 77 14 19 28 37 31 40 4 3 13 16
20 30 17 35 74 119 80 120 3 0 15 -15 27 -33 20 -29 21 -37 11 -69 -21 -68 29
-129 100 -123 25 2 37 -3 52 -23 11 -13 20 -30 20 -37 0 -17 -102 -84 -125
-82 -12 1 -20 -4 -20 -14 0 -13 -134 -129 -149 -129 -2 0 -3 8 -2 18 4 23 -14
63 -38 85 -20 17 -20 17 -31 -20 -7 -21 -24 -64 -39 -95 -15 -32 -30 -74 -33
-94 -6 -34 -5 -36 17 -29 12 4 34 20 49 36 14 16 36 31 49 34 13 2 33 13 45
25 12 11 56 45 97 75 41 30 80 58 85 62 6 5 43 32 83 62 l73 53 -17 27 c-9 14
-30 43 -46 64 l-30 37 26 0 c69 0 128 -51 152 -132 l18 -59 14 48 c22 76 53
110 124 131 66 21 66 23 -4 42 -60 16 -95 53 -117 124 l-17 57 -17 -59 c-17
-62 -69 -122 -105 -122 -9 0 -41 -11 -71 -25 -58 -27 -85 -26 -102 7 -12 22
-4 68 11 68 19 0 10 28 -25 73 -19 25 -35 49 -35 52 0 3 18 30 40 59 l41 53
37 -12 c124 -43 242 53 242 197 0 50 -3 61 -26 81 -33 28 -158 157 -210 217
-21 25 -41 47 -44 50 -3 3 -18 23 -35 45 -16 22 -34 45 -41 50 -24 21 -81 114
-149 245 -38 74 -75 144 -82 155 -11 20 -24 20 -1393 20 -760 0 -1389 -3
-1398 -6z m-195 -997 c15 -16 9 -32 -23 -56 -25 -18 -26 -18 -45 3 -24 25 -24
32 1 78 11 21 20 45 21 53 0 8 7 -3 16 -25 10 -22 23 -46 30 -53z m3243 -14
c0 -13 -68 -107 -94 -130 -10 -10 -15 -18 -10 -18 10 0 -61 -66 -88 -80 -11
-7 -18 -5 -22 5 -3 8 -2 14 2 14 22 -4 28 5 29 45 1 35 -2 45 -17 49 -15 4
-17 10 -12 32 6 20 18 31 46 40 48 17 82 48 103 97 l17 38 23 -41 c13 -23 23
-46 23 -51z m-3147 -47 l28 -6 -50 -49 c-43 -43 -52 -47 -66 -36 -36 30 -37
47 -3 79 20 19 39 29 48 25 8 -4 28 -9 43 -13z m35 -113 c-1 -35 -3 -66 -5
-70 -5 -9 -51 8 -66 25 -7 6 -19 21 -27 31 -14 18 -13 19 4 13 14 -6 28 2 53
28 19 19 36 35 38 35 2 0 4 -28 3 -62z m1188 -1098 c0 -13 -7 -20 -18 -20 -23
0 -23 27 0 33 9 3 17 5 17 6 1 0 1 -8 1 -19z m94 -10 c0 -5 -2 -10 -4 -10 -3
0 -8 5 -11 10 -3 6 -1 10 4 10 6 0 11 -4 11 -10z m-50 -48 c0 -10 -7 -19 -15
-19 -15 0 -20 18 -8 30 12 13 23 7 23 -11z m120 -1 c0 -16 -28 -20 -34 -5 -4
9 1 14 14 14 11 0 20 -4 20 -9z m110 0 c0 -5 -7 -11 -15 -15 -15 -5 -20 5 -8
17 9 10 23 9 23 -2z m93 -111 c3 -11 1 -20 -4 -20 -5 0 -9 9 -9 20 0 11 2 20
4 20 2 0 6 -9 9 -20z"/>
<path d="M2385 3190 c-3 -5 1 -10 10 -10 9 0 13 5 10 10 -3 6 -8 10 -10 10 -2
0 -7 -4 -10 -10z"/>
<path d="M2780 3124 c0 -8 5 -12 10 -9 6 3 10 10 10 16 0 5 -4 9 -10 9 -5 0
-10 -7 -10 -16z"/>
<path d="M2165 3080 c-8 -13 -1 -24 14 -19 6 3 7 10 2 18 -6 10 -10 10 -16 1z"/>
<path d="M2277 3083 c-12 -11 -8 -23 8 -23 8 0 15 7 15 15 0 16 -12 20 -23 8z"/>
<path d="M2386 3083 c-11 -11 -6 -23 9 -23 8 0 15 4 15 9 0 13 -16 22 -24 14z"/>
<path d="M2497 3084 c-3 -3 -3 -12 0 -20 4 -11 9 -12 19 -3 8 6 11 15 8 20 -6
10 -18 12 -27 3z"/>
<path d="M2612 3076 c1 -10 8 -17 13 -17 15 1 12 24 -3 29 -9 3 -13 -2 -10
-12z"/>
<path d="M2720 3075 c-10 -13 -9 -15 9 -15 11 0 21 4 21 9 0 18 -18 21 -30 6z"/>
<path d="M2837 3083 c-12 -11 -8 -23 8 -23 8 0 15 7 15 15 0 16 -12 20 -23 8z"/>
<path d="M2950 3075 c-10 -12 -10 -15 4 -15 9 0 16 7 16 15 0 8 -2 15 -4 15
-2 0 -9 -7 -16 -15z"/>
<path d="M2050 3070 c0 -5 5 -10 10 -10 6 0 10 5 10 10 0 6 -4 10 -10 10 -5 0
-10 -4 -10 -10z"/>
<path d="M3060 3069 c0 -5 5 -7 10 -4 6 3 10 8 10 11 0 2 -4 4 -10 4 -5 0 -10
-5 -10 -11z"/>
<path d="M1996 3031 c-4 -7 -5 -15 -2 -18 9 -9 19 4 14 18 -4 11 -6 11 -12 0z"/>
<path d="M2107 3033 c-12 -11 -8 -23 8 -23 8 0 15 7 15 15 0 16 -12 20 -23 8z"/>
<path d="M2217 3033 c-3 -3 -3 -11 0 -18 5 -14 33 -9 33 5 0 10 -26 20 -33 13z"/>
<path d="M2326 3033 c-10 -10 -7 -21 8 -26 8 -3 17 0 20 8 5 14 -17 28 -28 18z"/>
<path d="M2437 3026 c-3 -8 -3 -16 0 -19 9 -10 33 5 33 19 0 18 -26 18 -33 0z"/>
<path d="M2550 3027 c0 -19 10 -27 25 -20 17 6 8 33 -11 33 -8 0 -14 -6 -14
-13z"/>
<path d="M2667 3026 c-6 -16 2 -28 14 -20 12 7 11 34 0 34 -5 0 -11 -6 -14
-14z"/>
<path d="M2777 3033 c-4 -3 -7 -10 -7 -14 0 -11 29 -19 35 -10 6 11 -20 33
-28 24z"/>
<path d="M1890 3019 c0 -5 5 -7 10 -4 6 3 10 8 10 11 0 2 -4 4 -10 4 -5 0 -10
-5 -10 -11z"/>
<path d="M2890 3015 c0 -9 6 -12 15 -9 8 4 15 10 15 15 0 5 -7 9 -15 9 -8 0
-15 -7 -15 -15z"/>
<path d="M3000 3020 c0 -5 7 -10 15 -10 8 0 15 5 15 10 0 6 -7 10 -15 10 -8 0
-15 -4 -15 -10z"/>
<path d="M3115 3020 c4 -6 11 -8 16 -5 14 9 11 15 -7 15 -8 0 -12 -5 -9 -10z"/>
<path d="M2382 2977 c-16 -19 7 -40 28 -27 13 8 13 11 -1 25 -13 14 -17 14
-27 2z"/>
<path d="M2503 2983 c-18 -6 -16 -30 2 -37 9 -3 18 1 22 10 7 18 -7 33 -24 27z"/>
<path d="M2723 2983 c-18 -6 -16 -30 2 -37 9 -3 18 1 22 10 7 18 -7 33 -24 27z"/>
<path d="M1940 2965 c0 -8 5 -15 10 -15 6 0 10 7 10 15 0 8 -4 15 -10 15 -5 0
-10 -7 -10 -15z"/>
<path d="M2045 2971 c-7 -12 12 -24 25 -16 11 7 4 25 -10 25 -5 0 -11 -4 -15
-9z"/>
<path d="M2160 2965 c0 -8 7 -15 15 -15 8 0 15 7 15 15 0 8 -7 15 -15 15 -8 0
-15 -7 -15 -15z"/>
<path d="M2270 2967 c0 -21 12 -28 27 -16 19 16 16 29 -7 29 -11 0 -20 -6 -20
-13z"/>
<path d="M2600 2973 c0 -13 17 -35 25 -35 11 0 25 25 19 34 -6 10 -44 11 -44
1z"/>
<path d="M2830 2966 c0 -8 4 -17 9 -20 11 -7 33 18 24 27 -12 12 -33 7 -33 -7z"/>
<path d="M2945 2970 c-3 -6 1 -13 10 -16 19 -8 30 0 20 15 -8 14 -22 14 -30 1z"/>
<path d="M3056 2965 c-4 -12 -1 -16 11 -13 18 3 21 20 5 26 -5 1 -12 -4 -16
-13z"/>
<path d="M3176 2971 c-4 -7 -5 -15 -2 -18 9 -9 19 4 14 18 -4 11 -6 11 -12 0z"/>
<path d="M562 2823 c-120 -181 -278 -414 -292 -430 -15 -18 -12 -28 16 -57 33
-33 39 -33 57 2 7 15 80 158 162 317 81 160 152 296 157 303 6 6 8 12 4 12 -3
0 -50 -66 -104 -147z"/>
<path d="M1830 2959 c0 -5 5 -7 10 -4 6 3 10 8 10 11 0 2 -4 4 -10 4 -5 0 -10
-5 -10 -11z"/>
<path d="M615 2817 c-33 -67 -63 -123 -67 -125 -5 -2 -8 -10 -8 -18 0 -8 -58
-129 -130 -270 -71 -140 -130 -259 -130 -263 0 -21 79 -141 85 -131 10 15 138
387 174 505 16 50 54 162 85 250 31 87 55 162 54 166 -2 4 -30 -47 -63 -114z"/>
<path d="M1569 2899 c-26 -15 -63 -44 -82 -64 -35 -38 -111 -167 -140 -237 -9
-21 -21 -38 -26 -38 -14 0 -51 73 -51 99 0 55 47 111 91 111 22 0 30 6 35 26
28 109 -170 157 -269 65 -124 -114 -82 -316 84 -405 30 -16 55 -30 57 -32 2
-1 -2 -11 -9 -22 -11 -18 -15 -19 -47 -5 -106 44 -257 5 -307 -80 -22 -37 -30
-122 -16 -174 29 -106 119 -149 251 -121 35 8 91 52 125 100 l37 50 51 -51
c113 -113 238 -127 332 -35 37 36 75 89 75 104 0 25 21 2 47 -50 83 -163 294
-151 447 25 22 25 42 45 46 45 3 0 7 -11 8 -25 4 -49 40 -103 89 -132 38 -22
58 -27 112 -27 86 1 147 30 226 106 l60 57 10 -40 c12 -47 66 -108 98 -110 85
-6 114 10 170 94 41 60 61 66 52 15 -14 -78 -101 -187 -153 -189 -128 -7 -162
8 -186 84 -8 26 -40 3 -70 -53 -25 -48 -29 -118 -7 -170 29 -71 103 -111 196
-105 80 4 107 16 158 70 42 43 109 163 123 219 8 32 21 41 38 27 7 -6 25 -8
42 -5 48 9 65 23 129 109 9 11 14 16 14 10 -5 -23 14 -64 40 -89 30 -29 81
-38 126 -23 37 12 107 78 131 123 21 39 32 43 31 12 -2 -48 13 -105 32 -122
11 -10 37 -18 64 -19 83 -2 146 61 231 231 42 82 43 88 16 102 -17 9 -25 6
-50 -20 -16 -16 -33 -30 -37 -31 -4 0 -18 -2 -31 -5 -13 -2 -32 1 -44 7 -28
15 -20 68 26 166 39 81 46 137 20 147 -28 11 -55 6 -81 -14 -33 -26 -58 -25
-95 1 -60 43 -199 8 -261 -65 -39 -45 -85 -122 -92 -154 -3 -18 -25 -55 -47
-83 -34 -44 -43 -50 -71 -47 -31 3 -32 5 -31 48 1 31 15 77 47 148 55 120 60
158 20 168 -19 5 -39 0 -73 -19 l-47 -26 -36 24 c-41 28 -95 32 -161 13 -57
-17 -145 -106 -180 -183 -15 -33 -33 -71 -39 -85 -13 -25 -116 -104 -125 -95
-3 3 -11 0 -18 -6 -22 -18 -134 -15 -171 5 -40 20 -48 63 -10 52 84 -26 167
-14 212 31 66 66 80 143 40 224 -31 65 -128 87 -228 53 -89 -30 -185 -140
-202 -230 -10 -56 -95 -125 -174 -141 -83 -17 -175 2 -184 38 -7 25 5 31 38
19 104 -40 229 28 253 138 18 76 -7 137 -71 173 -33 18 -50 21 -108 17 -79 -6
-124 -30 -192 -104 -35 -38 -50 -64 -88 -161 -12 -32 -94 -80 -159 -94 -67
-14 -133 -7 -199 22 -56 24 -55 22 -42 47 5 9 14 29 22 45 11 24 18 27 61 27
58 0 153 30 211 67 155 97 213 325 104 407 -62 46 -149 52 -218 15z m68 -220
c11 -21 8 -30 -16 -73 -28 -51 -69 -80 -124 -90 -25 -4 -27 -3 -21 17 14 49
68 134 97 155 37 26 48 24 64 -9z m447 -195 c34 -33 13 -88 -40 -103 -50 -14
-76 15 -61 72 11 42 72 61 101 31z m518 5 c24 -13 23 -64 -2 -89 -28 -28 -84
-27 -97 3 -11 24 -1 65 21 82 19 14 55 16 78 4z m529 -55 c28 -34 13 -98 -32
-132 -22 -17 -33 -19 -81 -14 -26 3 -38 53 -22 93 28 67 100 95 135 53z m610
-2 c1 -4 2 -26 3 -49 2 -35 -3 -48 -25 -69 -54 -52 -129 -36 -129 28 0 69 65
126 121 106 16 -5 30 -13 30 -16z m-2573 -103 c21 -7 29 -15 25 -26 -9 -22
-51 -35 -74 -23 -23 13 -24 24 -3 44 18 19 14 19 52 5z"/>
<path d="M1561 2620 c-27 -44 -28 -49 -11 -40 20 11 60 66 60 83 0 20 -22 2
-49 -43z"/>
<path d="M2020 2445 c-20 -24 2 -41 24 -20 9 9 16 21 16 26 0 14 -26 10 -40
-6z"/>
<path d="M2533 2444 c-3 -8 -3 -17 0 -20 9 -10 48 7 45 18 -6 17 -39 18 -45 2z"/>
<path d="M3036 2385 c-24 -37 -21 -65 8 -65 28 0 56 33 56 67 0 32 -42 31 -64
-2z"/>
<path d="M3648 2393 c-22 -25 -27 -45 -16 -65 17 -33 78 9 78 54 0 23 -4 28
-23 28 -13 0 -31 -8 -39 -17z"/>
<path d="M1986 2915 c-6 -17 9 -29 24 -20 14 9 12 22 -4 28 -8 3 -17 -1 -20
-8z"/>
<path d="M2103 2915 c-7 -20 2 -29 21 -22 9 4 13 13 10 22 -8 19 -23 19 -31 0z"/>
<path d="M2213 2914 c-7 -18 17 -38 31 -24 11 11 1 40 -14 40 -6 0 -13 -7 -17
-16z"/>
<path d="M2320 2918 c0 -7 5 -20 10 -28 12 -19 35 2 27 24 -7 19 -37 21 -37 4z"/>
<path d="M2433 2914 c-3 -8 0 -21 6 -27 10 -9 16 -8 26 7 8 10 12 23 9 27 -9
15 -34 10 -41 -7z"/>
<path d="M2549 2928 c-10 -35 5 -54 31 -38 16 10 6 40 -15 40 -8 0 -15 -1 -16
-2z"/>
<path d="M2667 2924 c-14 -14 -7 -34 12 -34 12 0 18 6 17 17 -3 19 -18 27 -29
17z"/>
<path d="M2770 2912 c0 -24 8 -32 26 -25 22 8 17 43 -6 43 -13 0 -20 -7 -20
-18z"/>
<path d="M2885 2921 c-8 -15 3 -31 21 -31 9 0 14 7 12 17 -4 20 -24 28 -33 14z"/>
<path d="M3007 2923 c-4 -3 -7 -12 -7 -20 0 -15 26 -18 34 -4 7 11 -18 33 -27
24z"/>
<path d="M1882 2911 c4 -13 18 -16 19 -4 0 4 -5 9 -11 12 -7 2 -11 -2 -8 -8z"/>
<path d="M3110 2904 c0 -9 5 -14 12 -12 18 6 21 28 4 28 -9 0 -16 -7 -16 -16z"/>
<path d="M3230 2904 c0 -8 5 -12 10 -9 6 3 10 10 10 16 0 5 -4 9 -10 9 -5 0
-10 -7 -10 -16z"/>
<path d="M3886 2875 c4 -9 13 -15 21 -13 23 5 20 23 -4 26 -18 3 -21 0 -17
-13z"/>
<path d="M2277 2869 c-26 -15 -21 -39 8 -39 18 0 25 5 25 19 0 25 -11 32 -33
20z"/>
<path d="M2376 2864 c-3 -8 -3 -20 0 -28 7 -19 44 -8 44 14 0 22 -37 33 -44
14z"/>
<path d="M2495 2866 c-18 -13 -18 -16 -5 -30 13 -13 19 -14 33 -3 15 10 16 15
5 30 -12 16 -15 16 -33 3z"/>
<path d="M2613 2873 c-7 -3 -13 -13 -13 -23 0 -19 17 -30 38 -23 6 3 12 13 12
23 0 19 -17 30 -37 23z"/>
<path d="M2714 2865 c-9 -22 3 -46 20 -39 24 9 27 33 5 44 -15 9 -21 7 -25 -5z"/>
<path d="M1936 2862 c-2 -4 -1 -14 4 -21 10 -17 31 -5 23 14 -6 16 -19 20 -27
7z"/>
<path d="M2040 2850 c0 -15 5 -20 18 -18 9 2 17 10 17 18 0 8 -8 16 -17 18
-13 2 -18 -3 -18 -18z"/>
<path d="M2155 2860 c-4 -6 -1 -17 5 -26 15 -18 42 0 33 22 -6 16 -29 19 -38
4z"/>
<path d="M2827 2863 c-16 -15 -6 -33 18 -33 18 0 25 5 25 20 0 20 -28 28 -43
13z"/>
<path d="M2940 2850 c0 -13 7 -20 20 -20 13 0 20 7 20 20 0 13 -7 20 -20 20
-13 0 -20 -7 -20 -20z"/>
<path d="M3057 2863 c-4 -3 -7 -12 -7 -20 0 -17 26 -17 33 1 8 21 -11 35 -26
19z"/>
<path d="M3173 2862 c-7 -4 -9 -13 -5 -19 5 -8 13 -9 22 -3 10 6 11 13 5 19
-6 6 -16 7 -22 3z"/>
<path d="M3280 2850 c0 -5 7 -10 15 -10 8 0 15 5 15 10 0 6 -7 10 -15 10 -8 0
-15 -4 -15 -10z"/>
<path d="M1875 2746 c-1 -68 -5 -91 -29 -141 -60 -129 -222 -234 -363 -235
-22 0 -36 -6 -43 -19 -15 -28 -15 -28 41 -41 83 -20 214 2 252 42 13 14 28 44
48 98 20 54 69 113 126 155 29 21 50 43 47 47 -13 21 -11 63 4 74 18 13 6 38
-15 30 -10 -4 -18 3 -26 23 -5 15 -17 33 -26 38 -14 9 -16 0 -16 -71z"/>
<path d="M4077 2824 c-8 -9 36 -74 51 -74 17 0 15 7 -9 46 -20 34 -30 40 -42
28z"/>
<path d="M2097 2807 c-3 -8 -2 -20 3 -27 11 -18 42 -4 38 17 -4 22 -34 29 -41
10z"/>
<path d="M2213 2809 c-13 -13 -6 -39 11 -39 6 0 17 4 25 9 12 8 12 12 2 25
-16 19 -23 20 -38 5z"/>
<path d="M2320 2795 c0 -18 5 -25 19 -25 23 0 37 30 19 42 -24 14 -38 8 -38
-17z"/>
<path d="M2426 2805 c-8 -22 23 -49 40 -34 19 15 18 35 -2 43 -24 9 -31 7 -38
-9z"/>
<path d="M2543 2804 c-4 -11 1 -22 13 -31 16 -12 20 -11 31 3 9 13 10 21 2 31
-16 18 -38 16 -46 -3z"/>
<path d="M2661 2806 c-16 -19 -6 -36 20 -36 15 0 20 6 17 22 -4 27 -21 33 -37
14z"/>
<path d="M2766 2804 c-8 -21 1 -34 24 -34 22 0 33 23 17 39 -16 16 -34 14 -41
-5z"/>
<path d="M2884 2805 c-4 -9 -2 -21 4 -27 15 -15 44 -1 40 19 -4 23 -36 29 -44
8z"/>
<path d="M3000 2805 c-12 -14 -11 -18 1 -26 19 -12 26 -11 35 2 3 6 0 17 -8
25 -13 13 -16 13 -28 -1z"/>
<path d="M3111 2802 c-8 -15 -7 -21 3 -25 22 -9 40 18 22 32 -12 10 -17 8 -25
-7z"/>
<path d="M1980 2796 c0 -8 5 -18 10 -21 13 -8 42 14 34 26 -9 15 -44 10 -44
-5z"/>
<path d="M3227 2803 c-13 -12 -7 -23 13 -23 13 0 18 5 14 15 -7 16 -17 19 -27
8z"/>
<path d="M3345 2799 c-10 -15 3 -25 16 -12 7 7 7 13 1 17 -6 3 -14 1 -17 -5z"/>
<path d="M2276 2757 c-23 -17 -15 -47 13 -47 24 0 33 23 18 44 -11 15 -15 15
-31 3z"/>
<path d="M2383 2763 c-21 -8 -16 -53 6 -53 30 0 45 25 26 44 -9 9 -17 16 -18
15 -1 0 -8 -3 -14 -6z"/>
<path d="M2492 2758 c-17 -17 -15 -36 7 -47 25 -14 50 13 35 37 -14 21 -27 25
-42 10z"/>
<path d="M2606 2754 c-20 -20 -9 -44 20 -44 19 0 24 5 24 24 0 29 -24 40 -44
20z"/>
<path d="M2716 2757 c-21 -15 -12 -47 14 -47 24 0 33 15 25 40 -7 23 -15 25
-39 7z"/>
<path d="M2831 2760 c-20 -12 -8 -45 17 -48 18 -3 22 1 22 21 0 27 -19 40 -39
27z"/>
<path d="M2037 2746 c-9 -23 19 -41 38 -26 12 10 13 16 4 26 -15 18 -35 18
-42 0z"/>
<path d="M2150 2735 c0 -22 4 -26 23 -23 14 2 22 10 22 23 0 13 -8 21 -22 23
-19 3 -23 -1 -23 -23z"/>
<path d="M2938 2748 c-7 -18 2 -38 15 -38 23 0 38 17 31 33 -7 20 -40 23 -46
5z"/>
<path d="M3047 2746 c-8 -20 20 -43 35 -28 14 14 3 42 -16 42 -7 0 -16 -6 -19
-14z"/>
<path d="M3170 2750 c-13 -8 -13 -11 2 -26 16 -17 18 -17 24 0 9 23 -7 38 -26
26z"/>
<path d="M3282 2738 c5 -15 28 -18 29 -3 0 6 -7 12 -17 13 -10 3 -15 -1 -12
-10z"/>
<path d="M3396 2741 c-4 -5 -2 -12 3 -15 5 -4 12 -2 15 3 4 5 2 12 -3 15 -5 4
-12 2 -15 -3z"/>
<path d="M1343 2725 c-22 -15 -38 -59 -27 -76 3 -6 17 11 31 36 27 52 27 61
-4 40z"/>
<path d="M4150 2710 c0 -5 14 -24 32 -42 37 -38 50 -23 17 22 -22 29 -49 40
-49 20z"/>
<path d="M2103 2703 c-23 -8 -14 -33 12 -33 15 0 25 6 25 14 0 16 -19 25 -37
19z"/>
<path d="M2209 2694 c-11 -14 -10 -18 6 -30 13 -10 22 -11 32 -3 18 15 16 36
-3 43 -21 8 -20 8 -35 -10z"/>
<path d="M2316 2694 c-8 -21 1 -34 24 -34 25 0 35 17 20 35 -16 20 -36 19 -44
-1z"/>
<path d="M2430 2700 c-21 -13 1 -46 26 -42 25 5 35 23 22 39 -12 15 -27 16
-48 3z"/>
<path d="M2540 2690 c-11 -21 -9 -23 30 -20 31 2 32 3 24 24 -9 22 -41 20 -54
-4z"/>
<path d="M2661 2701 c-19 -12 -6 -41 18 -41 23 0 34 23 18 39 -13 13 -18 13
-36 2z"/>
<path d="M2763 2694 c-3 -8 1 -22 9 -30 19 -19 52 3 42 29 -8 21 -43 22 -51 1z"/>
<path d="M2883 2699 c-16 -16 -5 -39 18 -39 24 0 37 29 18 41 -18 11 -23 11
-36 -2z"/>
<path d="M3001 2701 c-17 -11 -7 -41 13 -41 22 0 30 20 15 36 -9 8 -19 10 -28
5z"/>
<path d="M1980 2685 c0 -21 30 -31 40 -14 11 17 3 29 -21 29 -10 0 -19 -7 -19
-15z"/>
<path d="M3107 2693 c-14 -13 -6 -23 18 -23 16 0 25 6 25 15 0 15 -31 21 -43
8z"/>
<path d="M3224 2689 c-10 -17 13 -36 27 -22 12 12 4 33 -11 33 -5 0 -12 -5
-16 -11z"/>
<path d="M3346 2693 c-11 -11 -6 -23 9 -23 8 0 15 4 15 9 0 13 -16 22 -24 14z"/>
<path d="M4691 2665 c-8 -23 -21 -37 -44 -45 l-32 -11 34 -17 c23 -11 38 -28
45 -50 l12 -33 13 36 c8 24 22 40 44 49 l32 12 -30 15 c-16 8 -37 28 -46 46
l-16 31 -12 -33z"/>
<path d="M3450 2680 c0 -5 5 -10 10 -10 6 0 10 5 10 10 0 6 -4 10 -10 10 -5 0
-10 -4 -10 -10z"/>
<path d="M2261 2641 c-8 -14 -7 -22 4 -31 20 -17 50 -8 50 15 1 36 -38 48 -54
16z"/>
<path d="M2366 2644 c-3 -8 -1 -24 4 -35 9 -15 15 -17 30 -9 27 15 33 29 20
45 -16 20 -46 19 -54 -1z"/>
<path d="M2710 2651 c0 -5 9 -13 20 -16 11 -3 20 -11 20 -16 0 -6 5 -7 10 -4
16 10 -8 45 -30 45 -11 0 -20 -4 -20 -9z"/>
<path d="M2823 2649 c-17 -17 -3 -49 22 -49 27 0 40 26 24 46 -14 17 -31 18
-46 3z"/>
<path d="M2936 2644 c-11 -29 -6 -34 19 -18 14 9 22 20 19 25 -9 14 -31 10
-38 -7z"/>
<path d="M3397 2643 c-3 -5 -2 -15 2 -22 7 -10 10 -10 16 -1 4 6 3 16 -3 22
-5 5 -12 6 -15 1z"/>
<path d="M3510 2630 c0 -5 5 -10 10 -10 6 0 10 5 10 10 0 6 -4 10 -10 10 -5 0
-10 -4 -10 -10z"/>
<path d="M1024 2570 c14 -108 20 -120 67 -120 21 0 39 3 39 6 0 3 -13 16 -29
30 -16 13 -41 48 -56 77 l-27 52 6 -45z"/>
<path d="M2314 2584 c-8 -29 7 -49 31 -41 25 10 30 38 10 53 -27 20 -34 18
-41 -12z"/>
<path d="M2778 2605 c-3 -3 4 -31 14 -62 11 -31 17 -68 15 -82 -5 -25 -5 -25
9 -6 8 11 17 30 21 43 3 12 9 22 14 22 5 0 9 7 9 15 0 18 -21 20 -39 3 -12
-11 -13 -9 -7 7 4 11 8 24 9 28 2 11 -38 39 -45 32z"/>
<path d="M2873 2585 c-9 -26 6 -30 27 -7 l21 22 -21 0 c-11 0 -23 -7 -27 -15z"/>
<path d="M3405 2558 c-11 -47 -10 -44 -54 -146 -48 -107 -49 -117 -19 -101 31
17 56 49 64 84 8 37 50 121 64 130 6 4 7 11 4 17 -4 6 -2 13 4 17 7 4 8 12 1
21 -8 13 -10 13 -18 1 -8 -12 -13 -12 -24 -3 -12 10 -16 7 -22 -20z"/>
<path d="M2292 2493 l1 -58 14 34 c16 38 14 72 -4 79 -10 3 -13 -12 -11 -55z"/>
<path d="M2756 2103 c-6 -14 -5 -15 5 -6 7 7 10 15 7 18 -3 3 -9 -2 -12 -12z"/>
<path d="M2850 2012 c25 -21 90 -35 90 -20 0 4 -10 9 -22 9 -36 2 -42 3 -68
17 l-25 13 25 -19z"/>
<path d="M1765 1916 c-19 -14 -19 -16 -2 -33 16 -16 18 -16 34 0 15 15 16 19
2 32 -13 13 -17 13 -34 1z"/>
<path d="M1324 1899 c-3 -5 -5 -19 -4 -32 4 -43 0 -52 -32 -66 -18 -8 -63 -35
-99 -60 -68 -45 -81 -66 -93 -142 -5 -32 3 -45 29 -44 17 0 20 -7 22 -50 1
-27 4 -62 7 -77 4 -21 1 -28 -15 -33 -35 -11 -87 -65 -100 -102 -19 -58 5
-151 52 -195 61 -59 130 -73 189 -37 33 20 90 76 90 88 0 3 4 12 9 20 7 10 15
7 38 -18 90 -93 208 -68 279 60 10 19 25 41 32 51 9 11 10 18 3 23 -6 3 -11
17 -11 31 0 14 -5 35 -11 46 -6 11 -7 18 -2 15 5 -3 15 -2 23 3 12 8 12 12 2
22 -10 10 -14 10 -21 0 -11 -18 -43 20 -35 42 7 18 -20 23 -31 6 -5 -8 -11 -8
-19 -1 -7 6 -23 12 -37 14 -22 4 -24 9 -25 58 0 56 -2 63 -36 140 -11 26 -17
52 -14 58 4 6 -3 15 -16 20 -25 9 -46 30 -47 46 -1 6 -4 10 -8 10 -22 1 -54
28 -49 41 3 8 1 14 -4 14 -5 0 -12 11 -16 24 -6 25 -39 41 -50 25z m99 -155
c55 -53 81 -97 72 -124 -4 -14 -2 -20 9 -20 10 0 17 -9 17 -22 2 -27 2 -78 0
-95 -1 -14 -26 -29 -56 -34 -33 -6 -95 -64 -95 -88 0 -11 -6 -9 -22 6 -27 24
-51 33 -98 40 -19 2 -40 11 -46 19 -15 19 -10 147 6 152 50 17 119 117 120
174 0 25 10 35 36 37 5 1 31 -20 57 -45z m202 -394 c12 -10 15 -22 11 -44 -7
-33 -21 -46 -51 -45 -20 0 -20 0 0 8 26 10 30 68 5 81 -9 5 -21 6 -25 2 -5 -4
-5 -1 -1 5 9 15 38 12 61 -7z m-114 0 c33 -18 21 -91 -16 -96 -16 -2 -16 -1 0
16 13 14 13 19 3 23 -10 4 -10 8 2 16 8 5 12 12 10 14 -3 2 -16 11 -30 20 -20
14 -21 17 -7 17 10 0 27 -5 38 -10z m-247 -38 c-15 -10 -39 -57 -25 -48 7 4
11 -1 11 -13 0 -15 7 -21 23 -21 16 0 18 -3 9 -9 -20 -13 -60 10 -67 39 -5 18
-1 29 15 42 12 10 27 18 34 18 8 0 8 -2 0 -8z m-116 -44 c-21 -21 -21 -22 -2
-29 10 -4 13 -8 7 -8 -20 -1 -15 -17 10 -29 22 -10 22 -11 -5 -11 -19 -1 -33
7 -44 24 -15 23 -15 27 0 50 9 14 25 25 36 25 19 0 19 -1 -2 -22z"/>
<path d="M1435 1670 c3 -5 8 -10 11 -10 2 0 4 5 4 10 0 6 -5 10 -11 10 -5 0
-7 -4 -4 -10z"/>
<path d="M1495 1510 c-3 -5 -1 -10 4 -10 6 0 11 5 11 10 0 6 -2 10 -4 10 -3 0
-8 -4 -11 -10z"/>
<path d="M1707 1863 c-12 -12 -7 -41 7 -46 22 -9 41 19 26 38 -14 16 -23 19
-33 8z"/>
<path d="M1811 1856 c-9 -11 -8 -18 4 -30 20 -20 29 -20 45 -1 10 12 10 18 0
30 -16 19 -34 19 -49 1z"/>
<path d="M3390 1845 c0 -15 6 -25 14 -25 22 0 30 19 16 35 -18 22 -30 18 -30
-10z"/>
<path d="M1490 1839 c0 -11 5 -17 10 -14 6 3 10 13 10 21 0 8 -4 14 -10 14 -5
0 -10 -9 -10 -21z"/>
<path d="M3625 1849 c-10 -15 3 -25 16 -12 7 7 7 13 1 17 -6 3 -14 1 -17 -5z"/>
<path d="M1876 1804 c-8 -8 -13 -21 -10 -29 8 -21 32 -26 48 -9 17 16 12 40
-9 48 -8 3 -21 -2 -29 -10z"/>
<path d="M1982 1811 c-8 -4 -12 -19 -10 -32 2 -20 8 -24 36 -22 27 1 31 -1 21
-13 -7 -8 -10 -17 -7 -19 10 -10 30 24 22 37 -5 7 -9 19 -11 27 -1 13 -21 31
-33 31 -3 0 -11 -4 -18 -9z"/>
<path d="M1652 1797 c-13 -15 -3 -33 17 -32 20 0 24 20 8 34 -11 9 -17 8 -25
-2z"/>
<path d="M1758 1798 c-8 -21 2 -38 22 -38 19 0 30 17 23 38 -3 6 -13 12 -23
12 -10 0 -20 -6 -22 -12z"/>
<path d="M2135 1787 c-51 -29 -85 -87 -85 -147 0 -34 11 -68 43 -131 53 -107
58 -149 21 -178 -33 -26 -65 -27 -93 -3 -29 23 -38 83 -17 105 9 8 16 25 16
36 0 17 -6 21 -31 21 -120 0 -185 -183 -112 -315 43 -78 153 -114 254 -84 47
15 124 87 139 133 16 48 19 116 7 151 -6 16 -30 63 -55 104 -55 91 -64 141
-31 165 33 23 58 20 71 -9 8 -18 8 -31 0 -49 -8 -19 -8 -27 3 -36 20 -17 46
-5 78 35 53 67 38 167 -31 208 -44 25 -127 22 -177 -6z"/>
<path d="M3334 1795 c-7 -18 3 -35 21 -35 15 0 28 27 19 41 -8 14 -34 11 -40
-6z"/>
<path d="M3443 1794 c-8 -21 19 -38 30 -18 9 16 1 34 -14 34 -5 0 -12 -7 -16
-16z"/>
<path d="M1540 1785 c0 -8 7 -15 15 -15 8 0 15 7 15 15 0 8 -7 15 -15 15 -8 0
-15 -7 -15 -15z"/>
<path d="M3560 1785 c0 -8 7 -15 15 -15 8 0 15 7 15 15 0 8 -7 15 -15 15 -8 0
-15 -7 -15 -15z"/>
<path d="M2513 1773 c-30 -25 -72 -113 -132 -281 -49 -139 -66 -202 -64 -249
1 -13 1 -39 2 -58 1 -30 6 -38 33 -49 17 -8 38 -13 47 -11 31 4 52 49 56 121
4 81 24 134 60 163 35 27 70 15 71 -25 0 -16 -3 -33 -7 -39 -14 -20 -36 -110
-33 -135 9 -58 37 -83 92 -84 33 0 96 42 118 78 16 28 18 28 28 12 6 -10 21
-31 34 -47 20 -25 35 -31 97 -43 36 -7 109 25 146 64 34 34 97 59 113 43 2 -3
-6 -30 -19 -60 -28 -62 -46 -124 -50 -167 -4 -41 35 -77 73 -67 27 7 72 77 72
113 0 9 5 20 10 23 6 4 8 10 6 13 -2 4 3 41 13 82 17 74 35 96 37 42 1 -54 5
-60 41 -74 53 -22 106 -5 159 48 25 24 57 45 76 49 53 12 87 37 115 84 24 42
25 45 8 57 -16 12 -23 9 -52 -17 -19 -16 -38 -27 -42 -24 -5 2 -5 22 -1 44 24
133 -28 218 -128 208 -24 -3 -51 -12 -61 -21 -24 -21 -38 -20 -44 4 -7 26 -46
27 -73 2 -10 -10 -32 -56 -48 -103 -28 -84 -68 -139 -101 -139 -12 0 -14 7 -8
28 12 46 6 118 -13 161 -14 32 -27 44 -61 57 -103 39 -212 -26 -275 -163 -29
-65 -56 -88 -88 -78 -26 8 -28 40 -8 107 40 133 -52 195 -162 108 -39 -31 -40
-31 -40 -9 0 12 18 58 41 101 47 93 51 141 9 146 -14 1 -35 -6 -47 -15z m525
-340 c14 -26 3 -79 -19 -99 -22 -20 -68 -22 -80 -3 -5 8 -9 27 -9 42 0 56 85
103 108 60z m444 -8 c25 -56 -52 -136 -94 -98 -41 37 -3 123 53 123 22 0 32
-7 41 -25z"/>
<path d="M2972 1400 c-6 -11 -12 -26 -12 -34 0 -16 22 -27 37 -18 16 11 34 52
28 62 -10 17 -39 11 -53 -10z"/>
<path d="M3410 1404 c-18 -20 -23 -51 -10 -59 13 -8 63 42 57 58 -6 19 -32 20
-47 1z"/>
<path d="M3685 1780 c3 -5 8 -10 11 -10 2 0 4 5 4 10 0 6 -5 10 -11 10 -5 0
-7 -4 -4 -10z"/>
<path d="M892 1735 c-18 -19 -19 -24 -7 -29 8 -3 15 -12 15 -21 0 -8 5 -15 10
-15 6 0 10 6 10 14 0 8 9 18 20 21 11 4 18 11 14 16 -3 6 -9 8 -12 4 -3 -3
-11 3 -17 14 -10 19 -11 19 -33 -4z"/>
<path d="M1933 1753 c-18 -7 -16 -29 4 -48 16 -16 17 -16 29 0 9 13 10 23 3
36 -10 19 -15 21 -36 12z"/>
<path d="M1601 1736 c-9 -10 -9 -16 -1 -21 17 -10 37 12 24 25 -8 8 -15 6 -23
-4z"/>
<path d="M1703 1734 c-9 -25 12 -38 31 -19 9 9 14 21 11 26 -10 14 -35 10 -42
-7z"/>
<path d="M1812 1728 c3 -25 36 -37 48 -17 13 20 0 39 -27 39 -20 0 -24 -4 -21
-22z"/>
<path d="M3273 1734 c-3 -8 -1 -20 5 -26 16 -16 42 -2 42 22 0 24 -38 28 -47
4z"/>
<path d="M3390 1732 c0 -10 3 -22 7 -25 10 -11 32 13 26 29 -8 20 -33 17 -33
-4z"/>
<path d="M3500 1725 c0 -8 6 -15 14 -15 8 0 16 7 20 15 4 10 -1 15 -14 15 -11
0 -20 -7 -20 -15z"/>
<path d="M3626 1731 c-4 -5 -2 -12 3 -15 5 -4 12 -2 15 3 4 5 2 12 -3 15 -5 4
-12 2 -15 -3z"/>
<path d="M1762 1688 c-7 -7 -8 -17 -1 -29 10 -20 34 -16 43 7 7 18 -27 37 -42
22z"/>
<path d="M1877 1693 c-13 -12 -7 -41 10 -47 23 -9 47 22 32 41 -12 14 -32 17
-42 6z"/>
<path d="M1975 1690 c-11 -17 5 -50 25 -50 17 0 34 42 22 55 -9 9 -41 5 -47
-5z"/>
<path d="M3223 1693 c-20 -8 -15 -40 7 -46 25 -6 45 24 28 41 -13 13 -16 13
-35 5z"/>
<path d="M1547 1676 c-7 -19 4 -27 21 -17 10 6 10 10 -1 20 -12 9 -16 8 -20
-3z"/>
<path d="M1647 1683 c-3 -5 -2 -15 3 -22 10 -17 43 -6 38 12 -6 15 -34 22 -41
10z"/>
<path d="M3330 1670 c0 -16 5 -21 23 -18 12 2 22 10 22 18 0 8 -10 16 -22 18
-18 3 -23 -2 -23 -18z"/>
<path d="M3444 1679 c-10 -17 13 -36 27 -22 12 12 4 33 -11 33 -5 0 -12 -5
-16 -11z"/>
<path d="M3566 1683 c-11 -11 -6 -23 9 -23 8 0 15 4 15 9 0 13 -16 22 -24 14z"/>
<path d="M1814 1629 c-3 -6 0 -17 7 -25 18 -17 44 -2 36 20 -7 18 -33 21 -43
5z"/>
<path d="M1924 1629 c-3 -6 0 -18 9 -26 18 -18 37 -9 37 18 0 21 -34 27 -46 8z"/>
<path d="M3160 1630 c-13 -8 -13 -11 2 -26 20 -20 51 -11 46 13 -4 21 -27 27
-48 13z"/>
<path d="M3281 1631 c-18 -11 -5 -31 20 -31 21 0 22 1 13 24 -7 18 -13 19 -33
7z"/>
<path d="M1600 1615 c0 -9 6 -12 15 -9 8 4 12 10 9 15 -8 14 -24 10 -24 -6z"/>
<path d="M1700 1616 c0 -15 24 -28 34 -19 13 14 5 33 -14 33 -11 0 -20 -6 -20
-14z"/>
<path d="M2205 1611 c-7 -23 5 -54 47 -122 19 -30 40 -67 47 -84 l13 -30 13
45 c28 97 37 125 47 138 21 25 -9 11 -36 -17 -33 -34 -71 -35 -98 -2 -13 17
-15 28 -8 47 14 35 12 44 -4 44 -8 0 -17 -8 -21 -19z"/>
<path d="M3390 1615 c0 -10 7 -15 18 -13 21 4 19 22 -2 26 -10 2 -16 -3 -16
-13z"/>
<path d="M3505 1620 c-3 -5 1 -10 9 -10 9 0 16 5 16 10 0 6 -4 10 -9 10 -6 0
-13 -4 -16 -10z"/>
<path d="M3625 1610 c3 -5 8 -10 11 -10 2 0 4 5 4 10 0 6 -5 10 -11 10 -5 0
-7 -4 -4 -10z"/>
<path d="M1763 1574 c-7 -19 11 -39 26 -30 16 10 13 33 -4 40 -9 3 -18 -1 -22
-10z"/>
<path d="M1870 1566 c0 -31 12 -39 35 -22 23 16 13 46 -15 46 -15 0 -20 -7
-20 -24z"/>
<path d="M1983 1583 c-18 -7 -16 -28 3 -43 12 -11 18 -10 31 3 28 27 4 56 -34
40z"/>
<path d="M3225 1582 c-19 -13 -11 -37 13 -40 20 -3 23 0 20 19 -3 24 -17 33
-33 21z"/>
<path d="M1652 1564 c4 -21 22 -23 26 -1 2 10 -3 17 -13 17 -10 0 -15 -6 -13
-16z"/>
<path d="M2035 1537 c-4 -11 -3 -23 4 -30 16 -16 14 -67 -4 -73 -16 -6 -20
-51 -7 -70 11 -17 35 -22 60 -13 32 12 29 61 -7 119 -16 26 -31 56 -33 66 -5
18 -5 18 -13 1z"/>
<path d="M2822 1528 c-7 -7 -12 -19 -12 -27 0 -11 4 -10 20 4 21 19 26 35 12
35 -4 0 -13 -5 -20 -12z"/>
<path d="M1718 1519 c-24 -13 -23 -29 2 -29 13 0 20 7 20 20 0 23 1 23 -22 9z"/>
<path d="M1819 1528 c-10 -35 5 -54 31 -38 16 10 6 40 -15 40 -8 0 -15 -1 -16
-2z"/>
<path d="M1930 1520 c0 -5 7 -7 15 -4 8 4 15 8 15 10 0 2 -7 4 -15 4 -8 0 -15
-4 -15 -10z"/>
<path d="M3187 1498 c4 -18 7 -52 7 -75 1 -24 2 -43 3 -43 2 0 10 16 18 36 12
30 13 40 3 52 -7 8 -13 24 -13 35 0 11 -6 22 -12 24 -9 3 -11 -4 -6 -29z"/>
<path d="M1602 1511 c2 -7 7 -12 11 -12 12 1 9 15 -3 20 -7 2 -11 -2 -8 -8z"/>
<path d="M3653 1442 c-1 -48 -1 -49 23 -38 26 12 25 38 -5 69 -17 17 -18 16
-18 -31z"/>
<path d="M1765 1461 c-8 -15 3 -31 21 -31 9 0 14 7 12 17 -4 20 -24 28 -33 14z"/>
<path d="M2516 1365 c-26 -28 -36 -65 -36 -132 0 -54 -21 -108 -48 -122 -38
-20 -91 -13 -117 15 -14 15 -25 36 -25 48 0 19 -3 18 -25 -10 -30 -38 -88 -83
-118 -91 -51 -14 -161 -11 -191 4 -52 26 -97 64 -107 90 -5 13 -13 22 -18 18
-13 -7 14 -99 42 -145 12 -19 21 -38 19 -43 -1 -4 1 -6 5 -5 5 1 31 -11 58
-27 43 -26 61 -30 131 -32 90 -2 137 14 193 68 37 35 39 35 43 7 2 -14 10 -23
20 -23 9 0 20 -4 24 -8 13 -12 84 -8 113 7 15 8 35 29 43 47 16 31 16 32 24 8
4 -13 8 -31 8 -39 1 -9 12 -16 26 -17 14 -1 40 -5 58 -9 37 -7 122 13 122 29
0 6 6 3 13 -8 10 -12 16 -14 21 -7 4 7 4 17 1 22 -15 25 9 30 38 8 67 -49 134
-60 206 -34 27 10 34 18 37 44 3 28 25 96 49 155 11 27 -6 20 -55 -23 -89 -79
-209 -80 -276 -3 -19 22 -22 23 -34 8 -7 -9 -33 -28 -57 -42 -35 -20 -53 -24
-89 -20 -56 6 -78 26 -95 84 -13 48 -13 48 39 191 7 21 -18 13 -42 -13z"/>
<path d="M1765 1340 c-3 -6 1 -13 10 -16 19 -8 30 0 20 15 -8 14 -22 14 -30 1z"/>
<path d="M3740 1321 c0 -15 -73 -86 -100 -98 -14 -7 -36 -15 -49 -18 -12 -4
-41 -24 -63 -46 -58 -56 -134 -74 -192 -44 -36 19 -42 15 -50 -33 -8 -52 -40
-124 -66 -147 -28 -25 -65 -29 -102 -11 l-31 16 6 -46 c6 -61 39 -94 99 -101
64 -7 106 31 139 127 18 54 27 69 39 64 61 -27 141 -8 205 48 25 22 61 44 80
49 49 14 97 59 131 123 25 48 27 57 15 79 -13 25 -61 54 -61 38z"/>
<path d="M1770 1225 c0 -8 5 -15 10 -15 6 0 10 7 10 15 0 8 -4 15 -10 15 -5 0
-10 -7 -10 -15z"/>
<path d="M1715 1170 c3 -5 8 -10 11 -10 2 0 4 5 4 10 0 6 -5 10 -11 10 -5 0
-7 -4 -4 -10z"/>
<path d="M1775 1110 c3 -5 8 -10 11 -10 2 0 4 5 4 10 0 6 -5 10 -11 10 -5 0
-7 -4 -4 -10z"/>
<path d="M2496 944 c-3 -8 1 -14 9 -14 20 0 28 17 11 23 -8 3 -17 -1 -20 -9z"/>
<path d="M2616 953 c-11 -11 -6 -23 9 -23 8 0 15 4 15 9 0 13 -16 22 -24 14z"/>
<path d="M2275 940 c3 -5 10 -10 16 -10 5 0 9 5 9 10 0 6 -7 10 -16 10 -8 0
-12 -4 -9 -10z"/>
<path d="M2380 940 c0 -5 7 -10 15 -10 8 0 15 5 15 10 0 6 -7 10 -15 10 -8 0
-15 -4 -15 -10z"/>
<path d="M2720 940 c0 -5 4 -10 9 -10 6 0 13 5 16 10 3 6 -1 10 -9 10 -9 0
-16 -4 -16 -10z"/>
<path d="M2830 940 c0 -5 7 -10 15 -10 8 0 15 5 15 10 0 6 -7 10 -15 10 -8 0
-15 -4 -15 -10z"/>
<path d="M2950 940 c0 -5 5 -10 10 -10 6 0 10 5 10 10 0 6 -4 10 -10 10 -5 0
-10 -4 -10 -10z"/>
<path d="M3060 939 c0 -5 5 -7 10 -4 6 3 10 8 10 11 0 2 -4 4 -10 4 -5 0 -10
-5 -10 -11z"/>
<path d="M2330 890 c0 -5 5 -10 11 -10 5 0 7 5 4 10 -3 6 -8 10 -11 10 -2 0
-4 -4 -4 -10z"/>
<path d="M2440 890 c0 -5 5 -10 11 -10 5 0 7 5 4 10 -3 6 -8 10 -11 10 -2 0
-4 -4 -4 -10z"/>
<path d="M2560 890 c0 -5 5 -10 11 -10 5 0 7 5 4 10 -3 6 -8 10 -11 10 -2 0
-4 -4 -4 -10z"/>
<path d="M2670 889 c0 -5 5 -7 10 -4 6 3 10 8 10 11 0 2 -4 4 -10 4 -5 0 -10
-5 -10 -11z"/>
<path d="M2780 890 c0 -5 5 -10 11 -10 5 0 7 5 4 10 -3 6 -8 10 -11 10 -2 0
-4 -4 -4 -10z"/>
</g>
</svg>
